<svg width="1021" height="697" viewBox="0 0 1021 697" fill="none" xmlns="http://www.w3.org/2000/svg">
<path d="M0.0849059 2.80163C0.0849059 4.13545 1.16618 5.21673 2.5 5.21673C3.83382 5.21673 4.91509 4.13545 4.91509 2.80163C4.91509 1.46781 3.83382 0.386538 2.5 0.386538C1.16618 0.386538 0.0849059 1.46781 0.0849059 2.80163ZM201.103 174.91L201.542 175.02L201.103 174.91ZM558.909 334.717L559.018 335.156L558.909 334.717ZM1016.06 694C1016.06 695.334 1017.14 696.415 1018.47 696.415C1019.81 696.415 1020.89 695.334 1020.89 694C1020.89 692.666 1019.81 691.585 1018.47 691.585C1017.14 691.585 1016.06 692.666 1016.06 694ZM2.54797 3.25191C3.8218 3.1162 5.15104 2.99878 6.53235 2.90042L6.46803 1.99705C5.07688 2.09611 3.73708 2.21444 2.45203 2.35135L2.54797 3.25191ZM14.7263 2.55512C17.3138 2.51377 20.0264 2.52869 22.8488 2.60335L22.8728 1.69801C20.0383 1.62303 17.3129 1.60801 14.7119 1.64958L14.7263 2.55512ZM30.9822 2.96857C33.6217 3.13375 36.3345 3.34723 39.1102 3.61131L39.196 2.70973C36.4107 2.44474 33.6882 2.23048 31.0387 2.06467L30.9822 2.96857ZM47.2202 4.50764C49.8726 4.84099 52.5698 5.21891 55.3039 5.64319L55.4428 4.74824C52.7001 4.32262 49.9942 3.94348 47.3331 3.60905L47.2202 4.50764ZM63.3524 7.00955C65.9899 7.49581 68.6532 8.02479 71.3357 8.59797L71.5249 7.71231C68.834 7.13732 66.1624 6.60668 63.5166 6.1189L63.3524 7.00955ZM79.2774 10.4135C81.8983 11.0523 84.5309 11.7337 87.1692 12.459L87.4093 11.5857C84.7623 10.858 82.1211 10.1744 79.4918 9.53362L79.2774 10.4135ZM95.0005 14.7389C97.5888 15.5353 100.177 16.3751 102.759 17.2594L103.052 16.4026C100.461 15.5151 97.864 14.6724 95.2669 13.8733L95.0005 14.7389ZM110.43 20.0281C112.965 20.9912 115.489 21.999 117.996 23.0528L118.347 22.2179C115.83 21.1599 113.296 20.1481 110.752 19.1815L110.43 20.0281ZM125.45 26.3482C127.915 27.4935 130.358 28.6859 132.773 29.9265L133.186 29.121C130.76 27.8747 128.307 26.677 125.832 25.5269L125.45 26.3482ZM139.94 33.8005C142.304 35.1445 144.635 36.5383 146.927 37.9833L147.41 37.2171C145.106 35.7646 142.764 34.3637 140.388 33.0131L139.94 33.8005ZM153.707 42.4906C155.936 44.0532 158.119 45.6689 160.252 47.3391L160.81 46.6261C158.665 44.9457 156.468 43.3205 154.227 41.7491L153.707 42.4906ZM166.517 52.5364C168.558 54.3309 170.542 56.1819 172.462 58.0907L173.101 57.4483C171.167 55.5261 169.17 53.6625 167.115 51.8562L166.517 52.5364ZM178.043 64.0066C179.837 66.0392 181.562 68.1312 183.213 70.284L183.931 69.733C182.268 67.5632 180.529 65.455 178.721 63.4072L178.043 64.0066ZM187.924 76.9128C189.407 79.1686 190.809 81.4854 192.127 83.8645L192.92 83.4256C191.59 81.0262 190.176 78.6899 188.681 76.4155L187.924 76.9128ZM195.786 91.113C196.902 93.5562 197.933 96.0601 198.872 98.6258L199.723 98.3145C198.775 95.7265 197.736 93.201 196.609 90.7366L195.786 91.113ZM201.371 106.368C202.096 108.951 202.732 111.592 203.274 114.293L204.162 114.115C203.615 111.392 202.974 108.729 202.243 106.124L201.371 106.368ZM204.577 122.281C204.912 124.921 205.16 127.614 205.317 130.361L206.222 130.309C206.063 127.542 205.813 124.828 205.476 122.167L204.577 122.281ZM205.518 138.525C205.498 141.184 205.396 143.891 205.21 146.647L206.114 146.708C206.301 143.935 206.403 141.209 206.424 138.532L205.518 138.525ZM204.437 154.705C204.108 157.365 203.703 160.068 203.219 162.814L204.111 162.972C204.598 160.21 205.005 157.492 205.336 154.816L204.437 154.705ZM201.625 170.746C201.323 172.088 201.002 173.439 200.663 174.801L201.542 175.02C201.883 173.652 202.205 172.293 202.508 170.945L201.625 170.746ZM200.663 174.801C200.332 176.131 200.032 177.471 199.763 178.823L200.651 179C200.918 177.662 201.215 176.335 201.542 175.02L200.663 174.801ZM198.522 186.993C198.235 189.711 198.066 192.462 198.016 195.24L198.922 195.256C198.972 192.504 199.139 189.779 199.423 187.088L198.522 186.993ZM198.213 203.501C198.39 206.223 198.678 208.965 199.077 211.72L199.973 211.59C199.578 208.858 199.293 206.14 199.117 203.442L198.213 203.501ZM200.57 219.851C201.161 222.512 201.855 225.18 202.652 227.849L203.52 227.59C202.729 224.941 202.041 222.294 201.454 219.655L200.57 219.851ZM205.276 235.661C206.228 238.207 207.273 240.749 208.413 243.284L209.239 242.913C208.107 240.396 207.069 237.871 206.125 235.344L205.276 235.661ZM212.027 250.7C213.295 253.109 214.649 255.508 216.09 257.892L216.865 257.424C215.433 255.055 214.088 252.672 212.829 250.278L212.027 250.7ZM220.572 264.85C222.104 267.087 223.715 269.307 225.405 271.508L226.123 270.956C224.443 268.769 222.842 266.562 221.319 264.339L220.572 264.85ZM230.591 277.904C232.359 279.973 234.2 282.02 236.115 284.043L236.772 283.42C234.869 281.408 233.038 279.372 231.279 277.315L230.591 277.904ZM241.948 289.912C243.901 291.785 245.92 293.633 248.005 295.453L248.6 294.771C246.526 292.96 244.517 291.121 242.574 289.259L241.948 289.912ZM254.338 300.736C256.474 302.438 258.672 304.113 260.931 305.757L261.464 305.025C259.215 303.388 257.028 301.721 254.902 300.027L254.338 300.736ZM267.656 310.441C269.92 311.949 272.24 313.428 274.615 314.876L275.087 314.103C272.721 312.661 270.412 311.189 268.159 309.687L267.656 310.441ZM281.753 319.038C284.116 320.355 286.53 321.642 288.994 322.898L289.405 322.091C286.951 320.841 284.547 319.558 282.194 318.247L281.753 319.038ZM296.448 326.528C298.898 327.666 301.395 328.775 303.938 329.852L304.291 329.018C301.758 327.945 299.271 326.841 296.83 325.706L296.448 326.528ZM311.595 332.944C314.13 333.918 316.707 334.862 319.327 335.774L319.625 334.919C317.014 334.01 314.445 333.069 311.921 332.098L311.595 332.944ZM327.141 338.358C329.74 339.173 332.379 339.957 335.058 340.71L335.303 339.838C332.633 339.088 330.003 338.306 327.412 337.493L327.141 338.358ZM342.994 342.816C345.64 343.479 348.323 344.111 351.044 344.711L351.239 343.827C348.527 343.228 345.852 342.598 343.214 341.938L342.994 342.816ZM359.076 346.372C361.754 346.889 364.466 347.376 367.213 347.833L367.361 346.94C364.622 346.484 361.918 345.998 359.248 345.483L359.076 346.372ZM375.327 349.078C378.022 349.458 380.75 349.809 383.508 350.131L383.613 349.231C380.862 348.911 378.142 348.56 375.453 348.182L375.327 349.078ZM391.698 350.988C394.399 351.239 397.129 351.463 399.888 351.657L399.952 350.754C397.2 350.56 394.476 350.337 391.782 350.086L391.698 350.988ZM408.155 352.151C410.851 352.282 413.573 352.387 416.322 352.465L416.348 351.56C413.605 351.482 410.889 351.378 408.199 351.246L408.155 352.151ZM424.65 352.614C427.339 352.635 430.053 352.63 432.791 352.599L432.781 351.694C430.048 351.725 427.34 351.73 424.657 351.709L424.65 352.614ZM441.055 352.427C443.775 352.345 446.518 352.237 449.284 352.103L449.24 351.198C446.479 351.332 443.742 351.44 441.028 351.522L441.055 352.427ZM457.463 351.635C460.212 351.454 462.983 351.247 465.777 351.015L465.702 350.112C462.913 350.344 460.147 350.55 457.404 350.731L457.463 351.635ZM473.875 350.274C476.588 350.004 479.321 349.71 482.075 349.391L481.971 348.491C479.222 348.809 476.493 349.103 473.786 349.373L473.875 350.274ZM490.299 348.374C492.971 348.023 495.661 347.649 498.371 347.251L498.239 346.355C495.534 346.752 492.848 347.125 490.181 347.476L490.299 348.374ZM506.556 345.99C509.245 345.556 511.953 345.099 514.679 344.62L514.522 343.728C511.8 344.207 509.097 344.663 506.411 345.096L506.556 345.99ZM522.715 343.149C525.412 342.637 528.125 342.103 530.856 341.546L530.675 340.659C527.948 341.215 525.239 341.748 522.546 342.259L522.715 343.149ZM538.898 339.854C541.541 339.28 544.2 338.685 546.875 338.069L546.672 337.186C544 337.801 541.345 338.395 538.706 338.968L538.898 339.854ZM554.947 336.159C556.3 335.83 557.657 335.495 559.018 335.156L558.799 334.277C557.44 334.616 556.084 334.95 554.733 335.279L554.947 336.159ZM559.018 335.156C560.404 334.81 561.782 334.477 563.154 334.154L562.948 333.273C561.571 333.596 560.188 333.931 558.799 334.277L559.018 335.156ZM571.31 332.362C574.003 331.811 576.67 331.307 579.312 330.847L579.157 329.955C576.506 330.416 573.83 330.922 571.128 331.475L571.31 332.362ZM587.414 329.567C590.2 329.173 592.958 328.829 595.688 328.536L595.591 327.635C592.851 327.93 590.083 328.274 587.287 328.671L587.414 329.567ZM603.794 327.805C606.569 327.604 609.314 327.456 612.031 327.359L611.998 326.454C609.271 326.551 606.514 326.7 603.729 326.902L603.794 327.805ZM620.314 327.225C623.045 327.233 625.746 327.296 628.418 327.41L628.457 326.505C625.773 326.39 623.06 326.328 620.317 326.319L620.314 327.225ZM636.728 327.939C639.482 328.174 642.205 328.464 644.896 328.81L645.012 327.912C642.307 327.564 639.572 327.272 636.804 327.037L636.728 327.939ZM652.993 330.03C655.733 330.505 658.44 331.037 661.115 331.627L661.309 330.742C658.621 330.15 655.901 329.615 653.147 329.138L652.993 330.03ZM669.044 333.561C671.724 334.279 674.371 335.055 676.986 335.886L677.26 335.023C674.632 334.188 671.972 333.408 669.278 332.686L669.044 333.561ZM684.756 338.553C687.337 339.505 689.886 340.512 692.405 341.572L692.756 340.738C690.225 339.672 687.664 338.66 685.07 337.703L684.756 338.553ZM699.924 344.937C702.403 346.112 704.851 347.34 707.27 348.618L707.693 347.817C705.263 346.533 702.803 345.3 700.312 344.118L699.924 344.937ZM714.47 352.618C716.841 354 719.183 355.432 721.497 356.91L721.985 356.147C719.66 354.662 717.308 353.224 714.926 351.835L714.47 352.618ZM728.341 361.47C730.595 363.034 732.822 364.643 735.023 366.295L735.566 365.571C733.357 363.913 731.121 362.297 728.858 360.726L728.341 361.47ZM741.518 371.349C743.65 373.068 745.758 374.826 747.842 376.622L748.434 375.936C746.342 374.134 744.227 372.369 742.087 370.644L741.518 371.349ZM754.01 382.108C756.023 383.954 758.014 385.836 759.984 387.75L760.616 387.101C758.639 385.18 756.642 383.293 754.622 381.44L754.01 382.108ZM765.834 393.592C767.74 395.548 769.627 397.534 771.495 399.55L772.159 398.934C770.286 396.913 768.394 394.922 766.482 392.96L765.834 393.592ZM777.031 405.666C778.848 407.719 780.646 409.8 782.428 411.905L783.12 411.32C781.333 409.21 779.53 407.124 777.71 405.066L777.031 405.666ZM787.683 418.241C789.418 420.376 791.138 422.534 792.843 424.713L793.557 424.155C791.848 421.972 790.125 419.809 788.385 417.669L787.683 418.241ZM797.852 431.227C799.507 433.418 801.148 435.627 802.777 437.854L803.508 437.319C801.877 435.089 800.232 432.875 798.574 430.681L797.852 431.227ZM807.6 444.547C809.187 446.782 810.762 449.033 812.327 451.297L813.072 450.782C811.505 448.515 809.928 446.261 808.339 444.022L807.6 444.547ZM816.988 458.129C818.519 460.401 820.04 462.686 821.552 464.981L822.308 464.483C820.795 462.185 819.272 459.898 817.739 457.623L816.988 458.129ZM826.061 471.895C827.552 474.205 829.034 476.523 830.509 478.848L831.274 478.363C829.798 476.036 828.314 473.716 826.822 471.404L826.061 471.895ZM834.902 485.83C836.359 488.163 837.809 490.503 839.252 492.846L840.023 492.371C838.579 490.026 837.128 487.685 835.67 485.35L834.902 485.83ZM843.564 499.885C844.996 502.235 846.422 504.587 847.843 506.94L848.618 506.472C847.197 504.118 845.77 501.764 844.338 499.414L843.564 499.885ZM852.101 514.013C853.519 516.376 854.933 518.739 856.343 521.1L857.121 520.635C855.71 518.274 854.295 515.911 852.877 513.547L852.101 514.013ZM860.567 528.175C861.982 530.547 863.395 532.917 864.806 535.281L865.583 534.816C864.172 532.453 862.76 530.083 861.344 527.711L860.567 528.175ZM869.038 542.362C870.454 544.728 871.87 547.087 873.285 549.438L874.061 548.971C872.646 546.621 871.231 544.262 869.815 541.897L869.038 542.362ZM877.564 556.518C878.99 558.869 880.418 561.209 881.846 563.538L882.618 563.064C881.19 560.737 879.764 558.398 878.338 556.048L877.564 556.518ZM886.205 570.596C887.662 572.939 889.121 575.268 890.584 577.581L891.349 577.097C889.888 574.786 888.43 572.459 886.974 570.118L886.205 570.596ZM895.028 584.544C896.53 586.874 898.036 589.186 899.547 591.477L900.303 590.979C898.794 588.69 897.29 586.381 895.789 584.054L895.028 584.544ZM904.109 598.309C905.671 600.617 907.239 602.903 908.815 605.163L909.558 604.645C907.985 602.388 906.419 600.106 904.859 597.801L904.109 598.309ZM913.565 611.867C915.194 614.128 916.831 616.361 918.478 618.563L919.204 618.02C917.56 615.823 915.925 613.595 914.299 611.338L913.565 611.867ZM923.482 625.115C925.19 627.305 926.909 629.461 928.641 631.581L929.343 631.008C927.615 628.894 925.9 626.743 924.196 624.558L923.482 625.115ZM933.955 637.92C935.763 640.02 937.584 642.079 939.422 644.094L940.091 643.484C938.26 641.475 936.444 639.423 934.642 637.329L933.955 637.92ZM945.106 650.135C947.034 652.119 948.981 654.053 950.947 655.936L951.573 655.282C949.616 653.407 947.677 651.48 945.755 649.504L945.106 650.135ZM957.058 661.563C959.13 663.395 961.225 665.169 963.343 666.881L963.912 666.177C961.805 664.473 959.721 662.708 957.658 660.885L957.058 661.563ZM969.927 671.947C972.16 673.579 974.42 675.142 976.708 676.634L977.203 675.876C974.929 674.393 972.682 672.838 970.461 671.216L969.927 671.947ZM983.786 680.965C986.185 682.337 988.615 683.631 991.077 684.843L991.477 684.03C989.032 682.827 986.618 681.542 984.236 680.179L983.786 680.965ZM998.628 688.255C1001.17 689.305 1003.76 690.268 1006.37 691.141L1006.66 690.282C1004.06 689.416 1001.5 688.46 998.973 687.418L998.628 688.255ZM1014.32 693.481C1015.66 693.825 1017.01 694.146 1018.38 694.443L1018.57 693.558C1017.22 693.263 1015.88 692.945 1014.54 692.604L1014.32 693.481Z" fill="black" fill-opacity="0.3"/>
</svg>
