<svg width="25" height="30" viewBox="0 0 25 30" fill="none" xmlns="http://www.w3.org/2000/svg">
<path d="M3.09832 0.00010639C1.39034 0.00010639 0 1.39144 0 3.09936V26.9007C0 28.6087 1.39034 30 3.09832 30H21.2985C23.0065 30 24.3968 28.6087 24.3968 26.9007V7.32938C24.3968 7.32938 24.4455 6.75629 24.1968 6.19862C23.9636 5.67588 23.5835 5.31205 23.5835 5.31205C23.5826 5.31076 23.5816 5.30948 23.5807 5.3082L19.0651 0.879074C19.0626 0.876547 19.0601 0.874046 19.0576 0.871571C19.0576 0.871571 18.6721 0.504469 18.1006 0.259233C17.4277 -0.0295205 16.7341 0.000961181 16.7341 0.000961181L16.7444 0L3.09832 0.00010639Z" fill="#FF2116"/>
<path d="M3.09979 1.01807H16.7459C16.7494 1.0181 16.7528 1.0181 16.7563 1.01807C16.7563 1.01807 17.3019 1.02335 17.7011 1.19463C18.0852 1.35948 18.3576 1.60901 18.3594 1.61069C18.3594 1.61069 18.3613 1.61261 18.3613 1.61261L22.8656 6.0314C22.8656 6.0314 23.1369 6.31791 23.2685 6.61275C23.3746 6.85073 23.3812 7.28614 23.3812 7.28614C23.3807 7.29333 23.3804 7.30052 23.3802 7.30772V26.9007C23.3802 28.0624 22.4616 28.9819 21.2999 28.9819H3.09979C1.93809 28.9819 1.01953 28.0624 1.01953 26.9007V3.0993C1.01953 1.93754 1.93809 1.01807 3.09979 1.01807Z" fill="#F5F5F5"/>
<path d="M6.09053 17.8616C5.39007 17.1612 6.14791 16.1987 8.20459 15.1766L9.49869 14.5334L10.0028 13.4304C10.2801 12.8237 10.694 11.8338 10.9225 11.2306L11.338 10.1338L11.0517 9.32217C10.6996 8.32417 10.5741 6.82443 10.7974 6.28515C11.1 5.55469 12.0911 5.62963 12.4834 6.41265C12.7899 7.02418 12.7585 8.13165 12.3953 9.52833L12.0975 10.6734L12.3598 11.1187C12.5041 11.3636 12.9255 11.9451 13.2963 12.4109L13.9932 13.2778L14.8603 13.1646C17.6151 12.8051 18.5587 13.4161 18.5587 14.2921C18.5587 15.3977 16.3956 15.4889 14.5791 14.2131C14.1704 13.9261 13.8897 13.6409 13.8897 13.6409C13.8897 13.6409 12.7518 13.8726 12.1915 14.0236C11.6131 14.1795 11.3246 14.2771 10.4775 14.563C10.4775 14.563 10.1802 14.9947 9.98654 15.3085C9.26594 16.4759 8.42456 17.4435 7.82369 17.7956C7.15092 18.1899 6.44563 18.2167 6.09053 17.8616ZM7.18978 17.4689C7.58352 17.2256 8.38046 16.283 8.93212 15.4082L9.15547 15.054L8.13848 15.5654C6.56774 16.3551 5.84916 17.0995 6.22282 17.5497C6.43273 17.8026 6.68383 17.7816 7.18978 17.4689ZM17.3926 14.6051C17.7777 14.3353 17.7218 13.7917 17.2864 13.5726C16.9476 13.402 16.6745 13.367 15.7943 13.38C15.2533 13.4168 14.3835 13.5259 14.2361 13.559C14.2361 13.559 14.714 13.8893 14.9261 14.0106C15.2085 14.1719 15.8948 14.4714 16.3958 14.6247C16.8901 14.776 17.176 14.7601 17.3926 14.6051ZM13.2902 12.9C13.0571 12.655 12.6608 12.1436 12.4095 11.7636C12.0808 11.3326 11.916 11.0285 11.916 11.0285C11.916 11.0285 11.6758 11.8012 11.4787 12.2662L10.8638 13.786L10.6855 14.1308C10.6855 14.1308 11.6333 13.82 12.1155 13.6941C12.6262 13.5606 13.6628 13.3568 13.6628 13.3568L13.2902 12.9ZM11.9681 7.59821C12.0276 7.09932 12.0528 6.60118 11.8925 6.34997C11.4479 5.86394 10.9113 6.26925 11.0022 7.42476C11.0328 7.81349 11.1294 8.478 11.2585 8.88757L11.4932 9.63224L11.6584 9.07138C11.7493 8.7629 11.8886 8.09998 11.9681 7.59821Z" fill="#FF2116"/>
<path d="M7.2832 21.1055H8.42042C8.78379 21.1055 9.07875 21.1402 9.30529 21.2098C9.53184 21.2771 9.7225 21.4285 9.87727 21.664C10.032 21.8973 10.1094 22.1788 10.1094 22.5085C10.1094 22.8113 10.0466 23.0715 9.92101 23.2891C9.7954 23.5066 9.62605 23.6636 9.41296 23.7601C9.20211 23.8565 8.87687 23.9048 8.43724 23.9048H8.04359V25.6981H7.2832V21.1055ZM8.04359 21.6943V23.2958H8.42042C8.75687 23.2958 8.98903 23.233 9.11688 23.1074C9.24697 22.9818 9.31202 22.7776 9.31202 22.495C9.31202 22.2842 9.26941 22.1137 9.18417 21.9836C9.09894 21.8513 9.00473 21.7705 8.90155 21.7414C8.80061 21.71 8.64024 21.6942 8.42042 21.6942L8.04359 21.6943ZM10.6915 21.1055H11.7244C12.2246 21.1055 12.6239 21.1941 12.9222 21.3713C13.2227 21.5485 13.4493 21.812 13.6018 22.1619C13.7566 22.5118 13.834 22.8999 13.834 23.3261C13.834 23.7747 13.7644 24.1751 13.6254 24.5272C13.4885 24.8771 13.2777 25.1597 12.9928 25.3751C12.7102 25.5904 12.3065 25.6981 11.7816 25.6981H10.6915V21.1055ZM11.4519 21.7144V25.0891H11.7681C12.21 25.0891 12.5308 24.9366 12.7304 24.6315C12.93 24.3242 13.0298 23.9149 13.0298 23.4034C13.0298 22.2774 12.6093 21.7144 11.7681 21.7144H11.4519ZM14.5641 21.1055H17.1144V21.7144H15.3245V23.0872H16.7578V23.6962H15.3245V25.6981H14.5641V21.1055Z" fill="#2C2C2C"/>
</svg>
