<svg width="24" height="24" viewBox="0 0 37 38" fill="none" xmlns="http://www.w3.org/2000/svg">
<path d="M3.0983 33.4412C2.09012 30.4174 1.9143 29.2972 1.3223 27.5212C0.730297 25.7452 0.730297 23.9692 3.0983 22.7852C5.4663 21.6012 7.2423 22.1932 8.4263 25.7452C9.6103 29.2972 10.2023 28.7052 12.5703 25.1532C14.9383 21.6012 25.5943 5.02517 28.5546 2.65717C31.5146 0.289169 33.8826 0.289169 35.0666 0.289169C36.2506 0.289169 39.2106 0.289169 33.8826 5.02517C33.8826 5.02517 14.3463 30.4812 11.9783 35.8092C11.9783 35.8092 10.7943 37.5852 9.0183 37.5852C7.2423 37.5852 4.8743 38.7692 3.0983 33.4412Z" fill="#06337E"/>
</svg>
